<svg width="27" height="19" viewBox="0 0 27 19" fill="none" xmlns="http://www.w3.org/2000/svg">
<path d="M1.875 3.75H24.375C25.41 3.75 26.25 2.91 26.25 1.875C26.25 0.84 25.41 0 24.375 0H1.875C0.84 0 0 0.84 0 1.875C0 2.91 0.84 3.75 1.875 3.75ZM24.375 7.5H1.875C0.84 7.5 0 8.34 0 9.375C0 10.41 0.84 11.25 1.875 11.25H24.375C25.41 11.25 26.25 10.41 26.25 9.375C26.25 8.34 25.41 7.5 24.375 7.5ZM24.375 15H1.875C0.84 15 0 15.84 0 16.875C0 17.91 0.84 18.75 1.875 18.75H24.375C25.41 18.75 26.25 17.91 26.25 16.875C26.25 15.84 25.41 15 24.375 15Z" fill="#044B77"/>
</svg>
