<svg width="25" height="24" viewBox="0 0 25 24" fill="none" xmlns="http://www.w3.org/2000/svg">
<path d="M22.4624 0.222656H2.40279C1.44267 0.222656 0.664001 0.98275 0.664001 1.91953V22.2139C0.664001 23.1502 1.44267 23.9103 2.40279 23.9103H22.4624C23.424 23.9103 24.2026 23.1498 24.2026 22.2139V1.91953C24.2026 0.982274 23.4235 0.222656 22.4624 0.222656ZM7.79869 20.0522H4.24349V9.35616H7.79869V20.0522ZM6.02133 7.89503H5.99752C4.80499 7.89503 4.03347 7.0735 4.03347 6.04718C4.03347 4.99801 4.8288 4.19934 6.04467 4.19934C7.26101 4.19934 8.00919 4.99801 8.03301 6.04718C8.03301 7.0735 7.26053 7.89503 6.02133 7.89503ZM20.6188 20.0522H17.0636V14.3287C17.0636 12.8914 16.5493 11.9103 15.2629 11.9103C14.2809 11.9103 13.6961 12.5718 13.4384 13.2109C13.3446 13.439 13.3218 13.7581 13.3218 14.0782V20.0518H9.76655C9.76655 20.0518 9.81323 10.3582 9.76655 9.35569H13.3218V10.8697C13.7942 10.141 14.6391 9.10328 16.5264 9.10328C18.8653 9.10328 20.6193 10.6325 20.6193 13.9182L20.6188 20.0522Z" fill="#044B77"/>
</svg>
