<svg width="24" height="25" viewBox="0 0 24 25" fill="none" xmlns="http://www.w3.org/2000/svg">
<path fill-rule="evenodd" clip-rule="evenodd" d="M1.19838 0.5H22.8016C23.4635 0.5 24 1.03493 24 1.69838V23.3016C24 23.9635 23.4651 24.5 22.8016 24.5H1.19838C0.536532 24.5 0 23.9651 0 23.3016V1.69838C0 1.03653 0.534926 0.5 1.19838 0.5Z" fill="#044B77"/>
<path fill-rule="evenodd" clip-rule="evenodd" d="M11.5385 10.2389C12.1249 9.6405 12.9422 9.26921 13.8462 9.26921C15.4961 9.26921 16.8571 10.506 17.0528 12.103C17.2076 12.0609 17.3704 12.0384 17.5385 12.0384C18.5581 12.0384 19.3847 12.865 19.3847 13.8846C19.3847 14.7448 18.7963 15.4676 18 15.6726V15.7307H9.00004H11.5385V10.2389ZM5.30773 15.2692C5.43518 15.2692 5.5385 14.6493 5.5385 13.8846C5.5385 13.1199 5.43518 12.5 5.30773 12.5C5.18028 12.5 5.07697 13.1199 5.07697 13.8846C5.07697 14.6493 5.18028 15.2692 5.30773 15.2692ZM6.23081 15.7307C6.35826 15.7307 6.46157 14.9042 6.46157 13.8846C6.46157 12.865 6.35826 12.0384 6.23081 12.0384C6.10336 12.0384 6.00004 12.865 6.00004 13.8846C6.00004 14.9042 6.10336 15.7307 6.23081 15.7307ZM7.15388 15.7307C7.28133 15.7307 7.38466 14.9042 7.38466 13.8846C7.38466 12.865 7.28133 12.0384 7.15388 12.0384C7.02643 12.0384 6.92311 12.865 6.92311 13.8846C6.92311 14.9042 7.02643 15.7307 7.15388 15.7307ZM8.07697 15.7307C8.20442 15.7307 8.30773 14.6976 8.30773 13.4231C8.30773 12.1486 8.20442 11.1154 8.07697 11.1154C7.94951 11.1154 7.84619 12.1486 7.84619 13.4231C7.84619 14.6976 7.94951 15.7307 8.07697 15.7307ZM9.00004 15.7307C9.12749 15.7307 9.23081 14.5942 9.23081 13.1923C9.23081 11.7903 9.12749 10.6538 9.00004 10.6538C8.87259 10.6538 8.76926 11.7903 8.76926 13.1923C8.76926 14.5942 8.87259 15.7307 9.00004 15.7307ZM9.92311 15.7307C10.0506 15.7307 10.1539 14.4909 10.1539 12.9615C10.1539 11.4321 10.0506 10.1923 9.92311 10.1923C9.79566 10.1923 9.69235 11.4321 9.69235 12.9615C9.69235 14.4909 9.79566 15.7307 9.92311 15.7307ZM10.8462 15.7307C10.9736 15.7307 11.077 14.4909 11.077 12.9615C11.077 11.4321 10.9736 10.1923 10.8462 10.1923C10.7187 10.1923 10.6154 11.4321 10.6154 12.9615C10.6154 14.4909 10.7187 15.7307 10.8462 15.7307Z" fill="#05090C"/>
</svg>
