<svg width="830" height="299" viewBox="0 0 830 299" fill="none" xmlns="http://www.w3.org/2000/svg">
<path d="M137.883 269.467C137.883 267.588 137.594 265.902 137.016 264.408C136.486 262.867 135.474 261.469 133.98 260.217C132.487 258.916 130.391 257.639 127.693 256.387C124.995 255.134 121.503 253.833 117.215 252.484C112.445 250.943 107.917 249.208 103.629 247.281C99.3893 245.354 95.6315 243.114 92.3555 240.561C89.1276 237.959 86.5742 234.948 84.6953 231.527C82.8646 228.107 81.9492 224.132 81.9492 219.604C81.9492 215.219 82.9128 211.245 84.8398 207.68C86.7669 204.066 89.4648 200.983 92.9336 198.43C96.4023 195.828 100.497 193.829 105.219 192.432C109.988 191.035 115.215 190.336 120.9 190.336C128.657 190.336 135.426 191.733 141.207 194.527C146.988 197.322 151.469 201.152 154.648 206.018C157.876 210.883 159.49 216.448 159.49 222.711H137.955C137.955 219.628 137.305 216.93 136.004 214.617C134.751 212.257 132.824 210.402 130.223 209.053C127.669 207.704 124.441 207.029 120.539 207.029C116.781 207.029 113.65 207.607 111.145 208.764C108.639 209.872 106.76 211.389 105.508 213.316C104.255 215.195 103.629 217.315 103.629 219.676C103.629 221.458 104.062 223.072 104.93 224.518C105.845 225.963 107.194 227.312 108.977 228.564C110.759 229.817 112.951 230.997 115.553 232.105C118.154 233.214 121.165 234.298 124.586 235.357C130.319 237.092 135.354 239.043 139.689 241.211C144.074 243.379 147.735 245.812 150.674 248.51C153.613 251.208 155.829 254.267 157.322 257.688C158.816 261.108 159.562 264.986 159.562 269.322C159.562 273.899 158.671 277.994 156.889 281.607C155.106 285.221 152.529 288.28 149.156 290.785C145.784 293.29 141.761 295.193 137.088 296.494C132.415 297.795 127.188 298.445 121.406 298.445C116.203 298.445 111.072 297.771 106.014 296.422C100.955 295.025 96.3542 292.929 92.2109 290.135C88.1159 287.34 84.8398 283.775 82.3828 279.439C79.9258 275.104 78.6973 269.973 78.6973 264.047H100.449C100.449 267.323 100.955 270.093 101.967 272.357C102.979 274.622 104.4 276.452 106.23 277.85C108.109 279.247 110.326 280.258 112.879 280.885C115.48 281.511 118.323 281.824 121.406 281.824C125.164 281.824 128.247 281.294 130.656 280.234C133.113 279.174 134.92 277.705 136.076 275.826C137.281 273.947 137.883 271.827 137.883 269.467ZM235.297 262.096H256.904C256.471 269.178 254.52 275.465 251.051 280.957C247.63 286.449 242.837 290.737 236.67 293.82C230.551 296.904 223.18 298.445 214.557 298.445C207.812 298.445 201.766 297.289 196.418 294.977C191.07 292.616 186.493 289.243 182.688 284.859C178.93 280.475 176.063 275.176 174.088 268.961C172.113 262.746 171.125 255.785 171.125 248.076V240.777C171.125 233.069 172.137 226.107 174.16 219.893C176.232 213.63 179.171 208.306 182.977 203.922C186.831 199.538 191.432 196.165 196.779 193.805C202.127 191.444 208.101 190.264 214.701 190.264C223.469 190.264 230.865 191.854 236.887 195.033C242.957 198.213 247.654 202.597 250.979 208.186C254.351 213.774 256.374 220.133 257.049 227.264H235.369C235.128 223.024 234.285 219.435 232.84 216.496C231.395 213.509 229.202 211.269 226.264 209.775C223.373 208.234 219.519 207.463 214.701 207.463C211.088 207.463 207.932 208.137 205.234 209.486C202.536 210.835 200.272 212.883 198.441 215.629C196.611 218.375 195.238 221.844 194.322 226.035C193.455 230.178 193.021 235.044 193.021 240.633V248.076C193.021 253.52 193.431 258.314 194.25 262.457C195.069 266.552 196.322 270.021 198.008 272.863C199.742 275.658 201.958 277.777 204.656 279.223C207.402 280.62 210.702 281.318 214.557 281.318C219.085 281.318 222.819 280.596 225.758 279.15C228.697 277.705 230.937 275.561 232.479 272.719C234.068 269.876 235.008 266.335 235.297 262.096ZM341.311 234.635V251.545H286.389V234.635H341.311ZM292.82 191.781V297H271.141V191.781H292.82ZM356.775 191.781V297H335.168V191.781H356.775ZM433.738 191.781H455.346V261.301C455.346 269.395 453.611 276.212 450.143 281.752C446.722 287.292 441.977 291.46 435.906 294.254C429.884 297.048 422.947 298.445 415.094 298.445C407.241 298.445 400.255 297.048 394.137 294.254C388.066 291.46 383.297 287.292 379.828 281.752C376.408 276.212 374.697 269.395 374.697 261.301V191.781H396.377V261.301C396.377 266.022 397.124 269.876 398.617 272.863C400.111 275.85 402.255 278.042 405.049 279.439C407.891 280.837 411.24 281.535 415.094 281.535C419.044 281.535 422.393 280.837 425.139 279.439C427.933 278.042 430.053 275.85 431.498 272.863C432.992 269.876 433.738 266.022 433.738 261.301V191.781ZM514.387 250.822H487.359L487.215 235.936H509.906C513.905 235.936 517.181 235.43 519.734 234.418C522.288 233.358 524.191 231.84 525.443 229.865C526.744 227.842 527.395 225.385 527.395 222.494C527.395 219.218 526.768 216.568 525.516 214.545C524.311 212.521 522.408 211.052 519.807 210.137C517.253 209.221 513.953 208.764 509.906 208.764H494.875V297H473.195V191.781H509.906C516.025 191.781 521.493 192.359 526.311 193.516C531.176 194.672 535.296 196.43 538.668 198.791C542.04 201.152 544.618 204.139 546.4 207.752C548.183 211.317 549.074 215.557 549.074 220.471C549.074 224.807 548.087 228.805 546.111 232.467C544.184 236.128 541.125 239.115 536.934 241.428C532.79 243.74 527.37 245.017 520.674 245.258L514.387 250.822ZM513.447 297H481.434L489.889 280.09H513.447C517.253 280.09 520.361 279.488 522.77 278.283C525.178 277.031 526.961 275.344 528.117 273.225C529.273 271.105 529.852 268.672 529.852 265.926C529.852 262.842 529.322 260.169 528.262 257.904C527.25 255.64 525.612 253.906 523.348 252.701C521.083 251.449 518.096 250.822 514.387 250.822H493.502L493.646 235.936H519.662L524.648 241.789C531.056 241.693 536.211 242.825 540.113 245.186C544.064 247.498 546.93 250.509 548.713 254.219C550.544 257.928 551.459 261.903 551.459 266.143C551.459 272.887 549.99 278.572 547.051 283.197C544.112 287.774 539.8 291.219 534.115 293.531C528.479 295.844 521.589 297 513.447 297ZM638.322 280.09V297H582.316V280.09H638.322ZM589.398 191.781V297H567.719V191.781H589.398ZM631.023 234.635V251.111H582.316V234.635H631.023ZM638.25 191.781V208.764H582.316V191.781H638.25ZM650.969 191.781H690.209C698.255 191.781 705.168 192.986 710.949 195.395C716.779 197.803 721.259 201.368 724.391 206.09C727.522 210.811 729.088 216.617 729.088 223.506C729.088 229.143 728.124 233.984 726.197 238.031C724.318 242.03 721.645 245.378 718.176 248.076C714.755 250.726 710.732 252.846 706.107 254.436L699.242 258.049H665.133L664.988 241.139H690.354C694.16 241.139 697.315 240.464 699.82 239.115C702.326 237.766 704.204 235.887 705.457 233.479C706.758 231.07 707.408 228.275 707.408 225.096C707.408 221.723 706.782 218.809 705.529 216.352C704.277 213.895 702.374 212.016 699.82 210.715C697.267 209.414 694.063 208.764 690.209 208.764H672.648V297H650.969V191.781ZM709.793 297L685.801 250.1L708.709 249.955L732.99 295.988V297H709.793ZM788.49 191.781V297H766.883V191.781H788.49ZM820.865 191.781V208.764H735.014V191.781H820.865Z" fill="#044B77"/>
<path d="M79.998 120.09V137H23.9922V120.09H79.998ZM31.0742 31.7812V137H9.39453V31.7812H31.0742ZM72.6992 74.6348V91.1113H23.9922V74.6348H72.6992ZM79.9258 31.7812V48.7637H23.9922V31.7812H79.9258ZM141.135 31.7812V137H119.527V31.7812H141.135ZM173.51 31.7812V48.7637H87.6582V31.7812H173.51ZM256.037 74.6348V91.5449H201.115V74.6348H256.037ZM207.547 31.7812V137H185.867V31.7812H207.547ZM271.502 31.7812V137H249.895V31.7812H271.502ZM334.445 49.7754L305.828 137H282.775L321.871 31.7812H336.541L334.445 49.7754ZM358.221 137L329.531 49.7754L327.219 31.7812H342.033L381.346 137H358.221ZM356.92 97.832V114.814H301.348V97.832H356.92ZM476.736 31.7812V137H455.057L412.781 66.4688V137H391.102V31.7812H412.781L455.129 102.385V31.7812H476.736Z" fill="#ED3B0D"/>
</svg>
